<?xml version="1.0" standalone="no"?>
<!DOCTYPE svg PUBLIC "-//W3C//DTD SVG 20010904//EN"
 "http://www.w3.org/TR/2001/REC-SVG-20010904/DTD/svg10.dtd">
<svg version="1.0" xmlns="http://www.w3.org/2000/svg"
 width="400.000000pt" height="400.000000pt" viewBox="0 0 400.000000 400.000000"
 preserveAspectRatio="xMidYMid meet">

<g transform="translate(0.000000,400.000000) scale(0.100000,-0.100000)"
fill="#000000" stroke="none">
<path d="M0 3069 l0 -901 21 5 c11 3 49 1 84 -4 55 -9 77 -7 170 15 59 14 129
26 157 26 49 0 186 -30 233 -52 18 -8 44 -8 101 2 43 6 83 14 90 17 8 3 13 -3
12 -14 -1 -28 22 -204 31 -243 9 -34 9 -34 11 15 1 44 2 47 12 25 5 -14 11
-43 12 -65 1 -22 5 -47 9 -55 3 -8 10 -31 16 -50 5 -19 10 -27 10 -18 1 10 12
20 26 24 31 8 31 8 40 -33 5 -27 4 -33 -11 -33 -14 0 -16 -6 -10 -37 3 -21 6
-46 6 -55 0 -10 5 -15 13 -12 10 3 12 -5 9 -31 -2 -19 -8 -35 -14 -35 -5 0 -6
5 -3 10 3 6 1 10 -4 10 -6 0 -11 -7 -11 -15 0 -8 -4 -15 -10 -15 -5 0 -10 5
-10 11 0 6 -7 17 -15 25 -19 20 -19 13 2 -30 9 -19 21 -32 26 -29 6 3 7 1 3
-5 -14 -23 54 -122 140 -203 31 -30 69 -66 83 -81 27 -27 117 -68 151 -68 10
0 49 25 85 55 37 30 71 55 75 55 9 0 32 61 26 68 -6 5 -76 -51 -76 -60 0 -5
-8 -8 -17 -8 -9 0 -14 -3 -11 -6 8 -7 -20 -34 -53 -53 -19 -10 -16 -5 11 23
32 34 33 38 17 47 -16 10 -16 12 3 40 22 30 64 40 73 17 2 -7 8 -1 12 13 7 28
32 45 80 53 71 12 92 21 122 55 38 42 42 61 13 61 -11 0 -23 7 -27 16 -4 11
-13 14 -30 9 -19 -4 -26 -1 -30 15 -3 11 -11 20 -18 20 -10 0 -12 12 -9 44 4
38 2 46 -16 56 -11 6 -18 16 -14 21 4 6 15 2 28 -10 30 -28 141 -81 169 -81
12 0 29 5 37 10 12 7 11 13 -9 34 -13 14 -36 28 -52 31 -27 6 -66 51 -55 63 4
3 21 1 39 -6 17 -6 51 -14 73 -18 23 -3 52 -16 66 -28 28 -25 31 -26 110 -31
50 -3 63 0 85 19 l26 22 -49 23 c-27 13 -59 32 -71 43 -19 18 -25 19 -57 7
-33 -12 -37 -11 -61 11 -13 13 -27 31 -30 40 -3 9 -24 24 -48 34 -43 19 -71
45 -87 82 -5 12 -30 29 -62 42 -41 16 -47 21 -27 21 15 1 45 -5 67 -13 22 -8
44 -11 48 -8 4 4 4 1 0 -5 -4 -8 -1 -13 8 -13 9 0 16 -7 16 -15 0 -8 6 -14 13
-13 6 2 12 -6 12 -17 0 -13 6 -19 18 -17 9 2 17 -1 17 -6 0 -4 16 -14 35 -22
20 -8 35 -21 35 -30 0 -8 9 -23 19 -32 18 -15 21 -15 33 0 11 13 11 15 -4 9
-25 -9 -23 9 2 26 12 8 20 18 19 23 -1 5 1 17 6 28 5 11 3 26 -4 37 -10 18 -9
19 26 14 44 -7 69 6 60 29 -5 12 -20 16 -56 16 -68 0 -79 6 -87 48 -8 45 -69
125 -106 141 -16 7 -28 19 -28 27 0 8 -6 14 -14 14 -15 0 -30 -32 -31 -65 0
-13 -15 -27 -45 -42 -56 -27 -71 -28 -103 -3 -14 11 -32 20 -41 20 -9 0 -16 6
-16 14 0 8 -11 17 -25 20 -16 4 -27 16 -31 34 -4 15 -13 37 -21 49 -13 20 -12
22 9 25 13 2 23 10 23 18 0 8 9 15 20 15 20 0 45 17 45 30 0 4 -6 5 -14 2 -17
-7 -30 43 -15 58 13 13 11 55 -2 55 -6 0 -9 6 -6 14 3 8 3 17 0 20 -3 3 -6 40
-7 83 -2 59 2 84 14 103 10 14 16 30 14 35 -2 6 9 17 25 26 28 17 29 16 61
-18 19 -19 44 -39 57 -44 12 -5 23 -15 23 -23 0 -9 24 -27 55 -41 30 -15 55
-30 55 -35 0 -11 97 -34 132 -32 15 1 29 -2 33 -8 3 -5 17 -10 30 -10 12 0 25
-7 29 -15 8 -21 83 -19 125 3 43 23 60 69 67 180 5 87 -1 126 -17 117 -5 -4
-9 -2 -9 4 0 8 -118 100 -162 126 -16 10 -14 15 27 55 54 53 71 97 56 142 -10
27 -8 35 9 53 11 12 20 27 20 33 0 14 10 16 65 12 35 -2 38 0 26 14 -11 13
-11 17 3 22 10 4 15 12 13 18 -7 17 31 17 64 0 40 -20 78 -17 123 10 36 22 43
23 75 11 20 -7 50 -20 66 -29 17 -9 37 -16 46 -16 8 0 24 -6 35 -14 16 -13 22
-13 42 0 20 13 22 13 22 -6 0 -25 11 -25 42 0 25 19 25 19 47 -2 13 -12 21
-28 18 -38 -3 -14 3 -19 25 -24 17 -3 34 -3 39 0 5 3 9 -4 9 -15 0 -12 7 -21
15 -21 8 0 15 -8 15 -18 0 -26 11 -34 27 -21 16 14 43 -5 43 -29 0 -9 18 -42
40 -73 22 -32 40 -63 40 -71 0 -8 4 -18 9 -23 9 -10 34 -103 51 -193 10 -53 9
-54 -41 -142 -27 -49 -55 -95 -62 -102 -7 -7 -38 -47 -69 -88 -62 -82 -128
-150 -128 -133 0 7 5 15 11 19 17 10 2 83 -25 124 -13 19 -36 42 -52 50 -16 8
-55 38 -86 67 -37 35 -65 53 -81 53 -14 0 -27 5 -29 12 -3 8 -13 4 -29 -11
-20 -18 -25 -20 -27 -7 -4 18 -47 22 -57 6 -3 -5 -15 -10 -26 -10 -10 0 -19
-6 -20 -12 -1 -7 -2 -28 -3 -47 -1 -19 -6 -36 -11 -37 -6 -1 -26 -5 -46 -8
-29 -5 -38 -12 -43 -32 -5 -19 -2 -30 11 -39 10 -7 18 -26 19 -42 0 -16 6 -43
13 -60 13 -32 80 -93 102 -93 7 0 20 -7 29 -15 18 -16 103 -28 94 -14 -10 16
3 9 30 -16 15 -14 30 -25 34 -25 12 0 62 47 62 59 0 6 4 11 8 11 13 0 14 69 2
106 -7 19 -20 39 -31 44 -22 13 -25 30 -5 30 15 0 48 -39 42 -49 -2 -3 7 -7
20 -7 30 -2 64 -39 64 -70 0 -12 -11 -35 -23 -51 -42 -50 -106 -158 -97 -161
5 -2 2 -14 -6 -27 -17 -25 -137 -127 -188 -159 -17 -10 -74 -54 -127 -97 -110
-90 -176 -123 -304 -150 -124 -27 -119 -23 -90 -65 32 -46 39 -88 32 -184 -6
-96 -32 -153 -125 -275 -37 -49 -95 -133 -127 -185 -33 -52 -80 -124 -105
-159 -25 -35 -63 -98 -85 -140 -22 -42 -50 -91 -62 -108 -47 -64 -19 -44 110
83 198 194 469 456 592 573 61 57 155 147 210 200 56 53 148 141 205 195 58
55 152 145 210 200 58 56 162 153 230 216 69 63 161 149 205 190 44 42 177
166 295 275 118 110 242 225 275 256 33 30 84 77 112 104 l53 48 0 568 0 569
-1435 0 c-789 0 -1435 -3 -1435 -7 0 -3 24 -28 53 -54 28 -27 48 -48 42 -48
-5 -1 -37 24 -69 54 l-59 55 -549 0 -548 0 0 -901z m2285 332 c3 -5 1 -12 -5
-16 -5 -3 -10 1 -10 9 0 18 6 21 15 7z m109 -43 c9 -12 16 -17 16 -11 0 6 9 9
20 6 21 -6 21 -6 -1 -21 -29 -20 -95 -21 -115 -1 -14 15 -14 18 1 33 23 23 61
20 79 -6z m-1829 -103 c22 -19 37 -34 33 -35 -3 0 -25 16 -48 35 -23 19 -38
35 -33 35 4 0 26 -16 48 -35z m2325 -25 c0 -11 -4 -20 -10 -20 -5 0 -10 9 -10
20 0 11 5 20 10 20 6 0 10 -9 10 -20z m-2176 -99 c17 -17 27 -31 24 -31 -10 0
-92 71 -102 88 -12 21 40 -17 78 -57z m1366 5 c0 -11 -19 -15 -25 -6 -3 5 1
10 9 10 9 0 16 -2 16 -4z m-44 -30 c4 -27 13 -32 34 -18 31 19 24 -5 -10 -40
-26 -25 -36 -29 -62 -24 -17 3 -37 6 -45 6 -8 0 -11 5 -8 10 3 6 -3 10 -14 10
-26 0 -28 18 -3 27 9 4 26 15 37 25 10 10 25 16 32 14 7 -3 13 -1 13 5 0 18
23 4 26 -15z m1101 -278 c-3 -8 -6 -5 -6 6 -1 11 2 17 5 13 3 -3 4 -12 1 -19z
m-1163 -144 c3 -9 6 -20 6 -25 0 -11 -47 -11 -75 0 -18 8 -16 10 15 24 45 20
47 20 54 1z m617 -454 c19 0 8 -21 -16 -30 -22 -8 -31 -6 -53 15 -15 14 -30
25 -34 25 -5 0 -8 4 -8 9 0 4 10 6 23 4 12 -2 33 0 47 5 21 8 26 6 28 -9 2
-11 8 -19 13 -19z m254 -60 c-3 -5 -14 -10 -23 -10 -15 0 -15 2 -2 10 20 13
33 13 25 0z m-1417 -142 c12 -10 22 -13 22 -8 0 24 31 7 51 -29 12 -21 32 -44
44 -51 26 -14 40 -50 20 -50 -7 0 -15 -5 -17 -10 -6 -20 -129 43 -151 78 -4 6
-15 12 -23 12 -13 0 -15 -9 -9 -52 6 -44 14 -59 44 -85 35 -32 36 -32 11 -34
-24 -1 -33 0 -55 6 -51 15 -56 19 -67 61 -7 23 -15 41 -20 38 -4 -3 -8 2 -8
10 0 11 9 16 26 16 31 0 28 23 -4 28 -20 3 -22 9 -22 62 0 34 5 62 12 66 7 4
8 3 4 -4 -10 -16 6 -15 39 2 26 14 30 13 55 -12 14 -15 36 -35 48 -44z m1295
37 c-3 -9 -8 -14 -10 -11 -3 3 -2 9 2 15 9 16 15 13 8 -4z m-929 -58 c-3 -9
-12 -13 -20 -10 -12 4 -11 8 3 18 21 16 26 14 17 -8z m126 -31 c0 -2 -9 -6
-20 -9 -11 -3 -20 -1 -20 4 0 5 9 9 20 9 11 0 20 -2 20 -4z m-953 -148 c-3 -7
-5 -2 -5 12 0 14 2 19 5 13 2 -7 2 -19 0 -25z m700 7 c-13 -27 -22 -31 -32
-15 -7 11 15 39 32 40 8 0 8 -6 0 -25z m-597 -159 c0 -2 -7 -6 -15 -10 -8 -3
-15 -1 -15 4 0 6 7 10 15 10 8 0 15 -2 15 -4z m20 -126 c0 -5 -4 -10 -10 -10
-5 0 -10 5 -10 10 0 6 5 10 10 10 6 0 10 -4 10 -10z m-26 -56 c23 -9 20 -34
-3 -34 -22 0 -35 15 -26 30 7 12 8 12 29 4z"/>
<path d="M2385 2490 c-3 -5 -1 -10 4 -10 6 0 11 5 11 10 0 6 -2 10 -4 10 -3 0
-8 -4 -11 -10z"/>
<path d="M1863 1543 c9 -2 23 -2 30 0 6 3 -1 5 -18 5 -16 0 -22 -2 -12 -5z"/>
<path d="M408 973 c7 -3 16 -2 19 1 4 3 -2 6 -13 5 -11 0 -14 -3 -6 -6z"/>
<path d="M451 930 c9 -5 36 -12 60 -15 l44 -5 -50 15 c-57 17 -77 19 -54 5z"/>
<path d="M581 936 c3 -4 71 -10 150 -16 79 -5 182 -15 229 -21 47 -7 104 -12
128 -11 24 1 75 -7 113 -19 39 -12 72 -19 75 -16 10 10 -126 47 -174 47 -27 0
-93 6 -148 14 -106 15 -382 31 -373 22z"/>
<path d="M1443 883 c9 -2 23 -2 30 0 6 3 -1 5 -18 5 -16 0 -22 -2 -12 -5z"/>
<path d="M1398 873 c7 -3 16 -2 19 1 4 3 -2 6 -13 5 -11 0 -14 -3 -6 -6z"/>
<path d="M1313 863 c9 -2 25 -2 35 0 9 3 1 5 -18 5 -19 0 -27 -2 -17 -5z"/>
<path d="M1005 830 c-152 -11 -271 -62 -379 -164 -62 -57 -70 -70 -72 -104 -1
-21 -9 -51 -19 -66 -19 -29 -82 -66 -113 -66 -10 0 -33 -11 -51 -24 -19 -14
-48 -28 -65 -32 -17 -3 -44 -16 -60 -27 -17 -12 -53 -28 -80 -37 -55 -18 -75
-41 -135 -155 -22 -43 -31 -74 -31 -107 l0 -48 543 0 542 1 25 22 c14 12 40
42 58 67 32 45 32 47 16 78 -8 18 -24 37 -34 42 -22 12 -35 59 -31 118 1 27
-2 41 -8 38 -18 -11 -52 83 -62 170 -9 78 -8 88 11 114 11 15 20 33 20 39 0
13 19 15 130 12 68 -3 89 -7 106 -23 19 -17 27 -18 62 -8 23 6 48 18 57 26 12
13 19 14 30 4 8 -7 24 -10 35 -7 11 3 36 1 55 -3 26 -6 35 -5 33 3 -5 16 -107
67 -134 67 -12 0 -41 9 -65 20 -24 11 -62 20 -85 20 -22 0 -67 9 -99 20 -32
11 -68 19 -79 18 -12 -1 -66 -5 -121 -8z m-24 -152 c19 -24 14 -55 -10 -68
-18 -9 -50 4 -38 16 7 7 -21 33 -36 34 -4 0 -11 -9 -15 -19 -6 -17 -9 -18 -26
-5 -17 12 -18 14 -3 14 9 0 17 5 17 10 0 6 6 10 14 10 7 0 16 10 19 21 5 18
11 20 34 15 15 -4 35 -17 44 -28z m4 -88 c3 -5 1 -10 -4 -10 -6 0 -11 5 -11
10 0 6 2 10 4 10 3 0 8 -4 11 -10z m-180 -52 c-1 -19 3 -24 15 -20 13 5 13 3
1 -11 -14 -17 -47 -24 -37 -8 3 5 -1 12 -10 15 -8 3 -12 10 -9 16 4 6 -5 10
-22 9 -15 0 -22 -3 -15 -6 6 -2 12 -11 12 -19 0 -8 5 -14 10 -14 6 0 10 -9 10
-20 0 -11 -4 -20 -10 -20 -5 0 -10 -9 -10 -20 0 -17 -5 -19 -26 -16 -34 7 -42
15 -24 26 11 7 8 10 -12 10 -16 0 -28 4 -28 10 0 5 6 7 14 4 8 -3 17 -1 21 5
3 6 1 11 -4 11 -6 0 -11 5 -11 10 0 6 7 10 15 10 8 0 15 6 15 14 0 15 21 26
51 26 11 0 18 4 15 8 -3 5 5 8 17 7 17 -1 22 -8 22 -27z m-205 -76 c0 -10 6
-24 13 -31 10 -11 8 -11 -10 0 -26 16 -38 49 -17 49 8 0 14 -8 14 -18z m290
-231 c0 -12 -29 -41 -41 -41 -10 0 -12 12 -3 34 6 17 44 23 44 7z"/>
<path d="M124 666 c-89 -66 -130 -103 -122 -111 3 -4 15 2 25 12 10 10 39 34
63 54 117 95 137 122 34 45z"/>
</g>
</svg>
